<?xml version="1.0" encoding="UTF-8"?>
<svg xmlns="http://www.w3.org/2000/svg" xmlns:xlink="http://www.w3.org/1999/xlink" width="35" height="20" viewBox="0 0 35 20" version="1.1">
<g id="surface1">
<path style=" stroke:none;fill-rule:evenodd;fill:rgb(58.039216%,65.882353%,89.411765%);fill-opacity:1;" d="M 11.628906 6.980469 C 11.628906 7.003906 11.71875 7.125 11.828125 7.246094 C 11.984375 7.425781 12.046875 7.464844 12.144531 7.4375 C 12.320312 7.386719 12.402344 7.292969 12.234375 7.332031 C 12.125 7.355469 12.050781 7.320312 11.863281 7.148438 C 11.734375 7.03125 11.628906 6.953125 11.628906 6.980469 M 17.035156 10.320312 C 16.664062 10.644531 15.976562 11.140625 15.644531 11.328125 C 15.59375 11.359375 15.464844 11.441406 15.359375 11.511719 C 15.253906 11.585938 15.09375 11.679688 15.003906 11.722656 C 14.53125 11.949219 13.800781 12.324219 13.839844 12.328125 C 13.902344 12.328125 14.957031 11.832031 15.332031 11.621094 C 15.800781 11.363281 16.523438 10.835938 17.027344 10.386719 L 17.460938 10 L 17.429688 10.324219 C 17.410156 10.535156 17.417969 10.632812 17.453125 10.601562 C 17.480469 10.574219 17.5 10.414062 17.488281 10.246094 L 17.472656 9.9375 L 17.035156 10.320312 M 17.144531 10.8125 C 16.53125 11.253906 15.691406 11.714844 14.921875 12.03125 C 14.214844 12.320312 13.957031 12.394531 13.820312 12.363281 C 13.761719 12.347656 13.726562 12.359375 13.746094 12.382812 C 13.761719 12.410156 13.730469 12.425781 13.675781 12.417969 C 13.621094 12.410156 13.34375 12.476562 13.054688 12.566406 C 12.769531 12.65625 12.460938 12.742188 12.371094 12.761719 C 12.207031 12.796875 12.207031 12.796875 12.535156 12.953125 C 12.84375 13.101562 12.882812 13.105469 13.148438 13.054688 C 13.574219 12.972656 14.648438 12.554688 15.1875 12.265625 C 15.867188 11.898438 16.589844 11.414062 17.035156 11.03125 C 17.40625 10.703125 17.472656 10.570312 17.144531 10.8125 M 17.445312 13.636719 C 17.140625 13.84375 16.457031 14.148438 16.152344 14.214844 C 16 14.25 15.746094 14.277344 15.589844 14.28125 C 15.285156 14.289062 15.28125 14.308594 15.5625 14.457031 C 16.125 14.757812 17.113281 15.324219 18.367188 16.058594 C 18.535156 16.15625 18.527344 16.140625 18.269531 15.863281 C 18.082031 15.664062 18.003906 15.539062 18.027344 15.480469 C 18.050781 15.417969 18.03125 15.394531 17.949219 15.394531 C 17.785156 15.394531 17.765625 15.328125 17.855469 15.121094 C 17.902344 15.023438 17.9375 14.925781 17.9375 14.914062 C 17.9375 14.898438 17.816406 14.886719 17.664062 14.886719 C 17.375 14.886719 17.347656 14.863281 17.464844 14.734375 C 17.503906 14.691406 17.578125 14.558594 17.625 14.441406 L 17.714844 14.230469 L 17.539062 14.269531 C 17.292969 14.328125 16.839844 14.382812 16.839844 14.355469 C 16.839844 14.34375 16.976562 14.25 17.144531 14.144531 C 17.308594 14.042969 17.445312 13.945312 17.445312 13.933594 C 17.445312 13.917969 17.417969 13.921875 17.382812 13.945312 C 17.347656 13.964844 17.398438 13.871094 17.496094 13.742188 C 17.589844 13.609375 17.664062 13.503906 17.652344 13.507812 C 17.644531 13.507812 17.550781 13.566406 17.445312 13.636719 "/>
<path style=" stroke:none;fill-rule:evenodd;fill:rgb(2.745098%,1.960784%,1.960784%);fill-opacity:1;" d="M 18.144531 4.6875 C 18.183594 4.703125 18.242188 4.703125 18.28125 4.6875 C 18.320312 4.675781 18.289062 4.664062 18.214844 4.664062 C 18.136719 4.664062 18.105469 4.675781 18.144531 4.6875 M 11.710938 4.789062 C 11.113281 4.914062 10.59375 5.171875 10.140625 5.566406 C 9.371094 6.230469 9.277344 6.863281 9.925781 7.007812 C 10.207031 7.070312 10.65625 7.019531 10.960938 6.890625 C 11.074219 6.839844 11.109375 6.847656 11.199219 6.953125 C 11.324219 7.097656 11.328125 7.144531 11.203125 7.234375 C 11.152344 7.273438 10.949219 7.429688 10.753906 7.574219 C 9.941406 8.183594 9.128906 9.054688 8.75 9.730469 C 8.554688 10.070312 8.339844 10.738281 8.339844 10.996094 C 8.339844 11.28125 8.511719 11.671875 8.730469 11.894531 C 9.003906 12.171875 9.308594 12.308594 10.351562 12.628906 C 10.800781 12.765625 11.375 12.953125 11.628906 13.042969 C 12.128906 13.222656 14.566406 14.328125 15.25 14.683594 C 16.054688 15.105469 18.136719 16.285156 18.523438 16.535156 C 18.738281 16.675781 18.941406 16.773438 18.96875 16.757812 C 19.003906 16.738281 18.996094 16.640625 18.945312 16.484375 C 18.636719 15.5625 18.460938 14.761719 18.15625 12.890625 C 17.910156 11.398438 17.910156 8.074219 18.152344 8.121094 C 18.191406 8.128906 18.207031 8.113281 18.191406 8.089844 C 18.175781 8.066406 18.210938 8.003906 18.269531 7.953125 C 18.328125 7.902344 18.375 7.835938 18.375 7.804688 C 18.375 7.773438 18.328125 7.800781 18.269531 7.867188 C 18.113281 8.039062 18.082031 7.921875 18.160156 7.460938 C 18.273438 6.785156 18.164062 6.382812 17.761719 5.953125 C 17.199219 5.355469 15.785156 5.261719 14.234375 5.714844 C 13.753906 5.855469 12.597656 6.347656 12.4375 6.484375 C 12.34375 6.5625 12.332031 6.558594 12.203125 6.441406 L 12.070312 6.316406 L 12.308594 6.074219 C 12.902344 5.46875 12.804688 4.808594 12.109375 4.777344 C 11.953125 4.769531 11.773438 4.773438 11.710938 4.789062 M 11.460938 5.136719 C 11.066406 5.242188 10.648438 5.472656 10.28125 5.792969 C 9.859375 6.160156 9.769531 6.335938 9.902344 6.527344 C 9.992188 6.65625 10.011719 6.660156 10.359375 6.636719 C 10.929688 6.59375 11.5 6.3125 12.054688 5.796875 C 12.371094 5.503906 12.441406 5.269531 12.242188 5.167969 C 12.0625 5.082031 11.722656 5.066406 11.460938 5.136719 M 15.113281 5.828125 C 14.550781 5.941406 13.863281 6.148438 13.285156 6.382812 C 12.839844 6.5625 12.832031 6.566406 12.972656 6.636719 C 13.445312 6.867188 12.703125 7.773438 12.042969 7.773438 C 11.894531 7.773438 11.8125 7.738281 11.699219 7.617188 L 11.546875 7.460938 L 11.191406 7.714844 C 9.695312 8.777344 8.640625 10.292969 8.828125 11.109375 C 8.90625 11.445312 8.953125 11.519531 9.214844 11.710938 C 9.4375 11.875 10.324219 12.214844 10.984375 12.382812 L 11.351562 12.480469 L 11.886719 12.308594 C 13.074219 11.925781 14.152344 11.398438 15.441406 10.566406 C 16.113281 10.132812 16.523438 9.8125 17.054688 9.308594 C 17.496094 8.890625 17.609375 8.703125 17.609375 8.394531 C 17.609375 8.28125 17.648438 8.035156 17.695312 7.847656 C 17.742188 7.660156 17.78125 7.328125 17.78125 7.105469 C 17.785156 6.753906 17.765625 6.675781 17.605469 6.394531 C 17.40625 6.042969 17.238281 5.914062 16.859375 5.804688 C 16.507812 5.707031 15.667969 5.714844 15.113281 5.828125 M 19.90625 6.382812 C 19.839844 6.460938 19.839844 6.464844 19.925781 6.402344 C 20.019531 6.332031 20.046875 6.292969 20.003906 6.292969 C 19.992188 6.292969 19.949219 6.332031 19.90625 6.382812 M 19.523438 6.535156 C 19.453125 6.617188 19.457031 6.617188 19.542969 6.554688 C 19.636719 6.488281 19.664062 6.445312 19.617188 6.445312 C 19.605469 6.445312 19.5625 6.484375 19.523438 6.535156 M 20.851562 6.679688 C 20.851562 6.738281 20.867188 6.75 20.882812 6.710938 C 20.898438 6.671875 20.898438 6.628906 20.878906 6.613281 C 20.859375 6.59375 20.847656 6.625 20.851562 6.679688 M 19.304688 6.789062 L 19.171875 6.929688 L 19.324219 6.808594 C 19.40625 6.738281 19.476562 6.675781 19.476562 6.667969 C 19.476562 6.625 19.429688 6.660156 19.304688 6.789062 M 11.574219 6.921875 C 11.574219 7 11.988281 7.46875 12.058594 7.46875 C 12.15625 7.46875 12.34375 7.371094 12.34375 7.320312 C 12.34375 7.296875 12.28125 7.289062 12.203125 7.304688 C 12.089844 7.324219 12.011719 7.28125 11.816406 7.105469 C 11.683594 6.984375 11.574219 6.902344 11.574219 6.921875 M 18.921875 7.199219 L 18.789062 7.339844 L 18.941406 7.214844 C 19.023438 7.148438 19.089844 7.085938 19.089844 7.074219 C 19.089844 7.035156 19.046875 7.066406 18.921875 7.199219 M 18.542969 7.597656 C 18.472656 7.664062 18.425781 7.730469 18.4375 7.742188 C 18.449219 7.753906 18.515625 7.695312 18.585938 7.613281 C 18.746094 7.433594 18.71875 7.421875 18.542969 7.597656 M 18.488281 7.851562 C 18.355469 7.976562 18.257812 8.082031 18.273438 8.082031 C 18.289062 8.082031 18.410156 7.976562 18.542969 7.851562 C 18.675781 7.726562 18.773438 7.621094 18.757812 7.621094 C 18.742188 7.621094 18.621094 7.726562 18.488281 7.851562 M 19.992188 8.402344 L 19.886719 8.515625 L 20.011719 8.417969 C 20.078125 8.367188 20.132812 8.3125 20.132812 8.304688 C 20.132812 8.261719 20.089844 8.292969 19.992188 8.402344 M 19.578125 8.53125 C 19.507812 8.609375 19.511719 8.613281 19.597656 8.546875 C 19.652344 8.511719 19.695312 8.46875 19.695312 8.460938 C 19.695312 8.417969 19.648438 8.445312 19.578125 8.53125 M 19.277344 8.8125 L 19.171875 8.925781 L 19.296875 8.828125 C 19.414062 8.738281 19.445312 8.695312 19.402344 8.695312 C 19.390625 8.695312 19.335938 8.746094 19.277344 8.8125 M 19.496094 8.8125 L 19.394531 8.925781 L 19.515625 8.828125 C 19.632812 8.738281 19.664062 8.695312 19.621094 8.695312 C 19.609375 8.695312 19.554688 8.746094 19.496094 8.8125 M 19.25 8.988281 C 19.179688 9.070312 19.183594 9.074219 19.269531 9.007812 C 19.359375 8.941406 19.390625 8.898438 19.34375 8.898438 C 19.332031 8.898438 19.289062 8.941406 19.25 8.988281 M 18.972656 9.039062 C 18.90625 9.121094 18.90625 9.125 18.996094 9.058594 C 19.046875 9.023438 19.089844 8.980469 19.089844 8.972656 C 19.089844 8.929688 19.046875 8.957031 18.972656 9.039062 M 22.480469 9.039062 C 22.578125 9.050781 22.726562 9.050781 22.808594 9.039062 C 22.890625 9.027344 22.808594 9.019531 22.628906 9.019531 C 22.449219 9.019531 22.378906 9.027344 22.480469 9.039062 M 19.015625 9.128906 C 18.960938 9.167969 18.886719 9.1875 18.847656 9.175781 C 18.757812 9.144531 18.625 9.289062 18.703125 9.332031 C 18.753906 9.363281 19.144531 9.128906 19.144531 9.074219 C 19.144531 9.042969 19.125 9.050781 19.015625 9.128906 M 21.847656 9.21875 C 21.75 9.285156 21.671875 9.355469 21.671875 9.382812 C 21.667969 9.410156 21.726562 9.382812 21.792969 9.324219 C 21.859375 9.269531 21.964844 9.195312 22.027344 9.164062 C 22.085938 9.132812 22.109375 9.105469 22.078125 9.105469 C 22.050781 9.105469 21.945312 9.15625 21.847656 9.21875 M 24.46875 9.179688 C 24.46875 9.21875 24.488281 9.265625 24.515625 9.28125 C 24.542969 9.296875 24.554688 9.261719 24.539062 9.207031 C 24.503906 9.085938 24.46875 9.074219 24.46875 9.179688 M 20.476562 9.308594 C 20.476562 9.40625 20.488281 9.449219 20.5 9.398438 C 20.515625 9.351562 20.515625 9.269531 20.5 9.21875 C 20.488281 9.171875 20.476562 9.210938 20.476562 9.308594 M 18.734375 9.257812 C 18.714844 9.285156 18.738281 9.296875 18.785156 9.277344 C 18.882812 9.242188 18.898438 9.207031 18.820312 9.207031 C 18.792969 9.207031 18.753906 9.230469 18.734375 9.257812 M 25.871094 9.273438 C 25.890625 9.324219 25.921875 9.351562 25.9375 9.335938 C 25.953125 9.320312 25.9375 9.28125 25.898438 9.246094 C 25.847656 9.195312 25.839844 9.199219 25.871094 9.273438 M 27.320312 9.308594 C 27.289062 9.367188 27.273438 9.410156 27.289062 9.410156 C 27.304688 9.410156 27.34375 9.367188 27.375 9.308594 C 27.40625 9.253906 27.421875 9.207031 27.40625 9.207031 C 27.390625 9.207031 27.351562 9.253906 27.320312 9.308594 M 23.753906 9.488281 C 23.855469 9.585938 23.953125 9.667969 23.96875 9.667969 C 23.984375 9.667969 23.910156 9.585938 23.808594 9.488281 C 23.707031 9.390625 23.609375 9.308594 23.59375 9.308594 C 23.582031 9.308594 23.652344 9.390625 23.753906 9.488281 M 20.472656 9.617188 C 20.472656 9.6875 20.484375 9.714844 20.5 9.679688 C 20.515625 9.644531 20.515625 9.585938 20.5 9.550781 C 20.484375 9.515625 20.472656 9.546875 20.472656 9.617188 M 27.078125 9.753906 C 27.046875 9.828125 27.054688 9.832031 27.105469 9.785156 C 27.144531 9.75 27.160156 9.707031 27.144531 9.691406 C 27.128906 9.675781 27.097656 9.703125 27.078125 9.753906 M 17.003906 10.300781 C 15.988281 11.203125 14.132812 12.246094 12.933594 12.585938 C 12.625 12.671875 12.324219 12.761719 12.269531 12.78125 C 12.191406 12.808594 12.351562 12.898438 12.890625 13.136719 C 13.59375 13.449219 13.621094 13.457031 13.875 13.40625 C 14.808594 13.21875 16.148438 12.507812 17.300781 11.582031 L 17.5625 11.375 L 17.515625 10.628906 L 17.472656 9.882812 L 17.003906 10.300781 M 20.476562 10.101562 C 20.476562 10.214844 20.488281 10.253906 20.5 10.191406 C 20.515625 10.128906 20.515625 10.035156 20.5 9.988281 C 20.488281 9.9375 20.476562 9.988281 20.476562 10.101562 M 26.910156 10.0625 C 26.882812 10.132812 26.886719 10.140625 26.941406 10.089844 C 26.980469 10.054688 26.996094 10.015625 26.980469 10 C 26.964844 9.984375 26.933594 10.011719 26.910156 10.0625 M 26.796875 10.234375 C 26.777344 10.261719 26.773438 10.300781 26.785156 10.3125 C 26.800781 10.324219 26.828125 10.300781 26.84375 10.257812 C 26.882812 10.167969 26.851562 10.152344 26.796875 10.234375 M 24.195312 10.363281 C 24.199219 10.421875 24.210938 10.433594 24.230469 10.394531 C 24.246094 10.355469 24.242188 10.3125 24.226562 10.296875 C 24.207031 10.277344 24.195312 10.308594 24.195312 10.363281 M 28.003906 10.4375 C 27.984375 10.46875 27.980469 10.503906 27.992188 10.515625 C 28.007812 10.53125 28.035156 10.507812 28.050781 10.460938 C 28.089844 10.371094 28.058594 10.355469 28.003906 10.4375 M 21.628906 10.613281 C 21.628906 10.726562 21.640625 10.765625 21.652344 10.703125 C 21.667969 10.640625 21.664062 10.546875 21.652344 10.5 C 21.636719 10.449219 21.628906 10.5 21.628906 10.613281 M 25.429688 10.808594 C 25.453125 10.859375 25.480469 10.886719 25.5 10.871094 C 25.515625 10.855469 25.5 10.8125 25.460938 10.777344 C 25.40625 10.730469 25.402344 10.734375 25.429688 10.808594 M 24.203125 10.894531 C 24.203125 10.964844 24.214844 10.996094 24.230469 10.960938 C 24.246094 10.925781 24.246094 10.867188 24.230469 10.832031 C 24.214844 10.796875 24.203125 10.824219 24.203125 10.894531 M 6.726562 11.003906 C 6.644531 11.0625 6.589844 11.125 6.605469 11.140625 C 6.625 11.15625 6.605469 11.203125 6.570312 11.246094 C 6.53125 11.289062 6.589844 11.261719 6.699219 11.1875 C 6.804688 11.113281 6.894531 11.015625 6.894531 10.972656 C 6.894531 10.875 6.902344 10.875 6.726562 11.003906 M 6.6875 11.085938 C 6.617188 11.167969 6.617188 11.171875 6.71875 11.101562 C 6.78125 11.058594 6.839844 11.019531 6.851562 11.011719 C 6.867188 11.003906 6.851562 10.996094 6.820312 10.996094 C 6.785156 10.996094 6.726562 11.039062 6.6875 11.085938 M 22.632812 11.179688 C 22.574219 11.21875 22.550781 11.253906 22.585938 11.253906 C 22.617188 11.253906 22.675781 11.21875 22.710938 11.175781 C 22.796875 11.082031 22.769531 11.082031 22.632812 11.179688 M 6.070312 11.523438 C 5.910156 11.667969 5.871094 11.71875 5.976562 11.632812 C 6.085938 11.546875 6.242188 11.425781 6.328125 11.363281 C 6.417969 11.304688 6.457031 11.253906 6.421875 11.253906 C 6.382812 11.253906 6.226562 11.375 6.070312 11.523438 M 22.230469 11.289062 C 22.285156 11.300781 22.371094 11.300781 22.421875 11.289062 C 22.476562 11.277344 22.433594 11.265625 22.328125 11.265625 C 22.222656 11.265625 22.179688 11.277344 22.230469 11.289062 M 6.277344 11.523438 L 6.117188 11.6875 L 6.296875 11.539062 C 6.394531 11.457031 6.472656 11.378906 6.472656 11.371094 C 6.472656 11.332031 6.429688 11.367188 6.277344 11.523438 M 24.003906 11.441406 C 23.972656 11.515625 23.980469 11.523438 24.035156 11.472656 C 24.074219 11.4375 24.089844 11.394531 24.074219 11.378906 C 24.054688 11.363281 24.023438 11.390625 24.003906 11.441406 M 23.832031 11.675781 L 23.726562 11.789062 L 23.851562 11.691406 C 23.917969 11.640625 23.972656 11.585938 23.972656 11.578125 C 23.972656 11.535156 23.929688 11.566406 23.832031 11.675781 M 23.582031 11.90625 C 23.515625 11.988281 23.515625 11.988281 23.601562 11.925781 C 23.65625 11.886719 23.699219 11.847656 23.699219 11.835938 C 23.699219 11.792969 23.652344 11.820312 23.582031 11.90625 M 5.273438 12.25 C 5.148438 12.375 5.046875 12.496094 5.046875 12.515625 C 5.046875 12.53125 5.054688 12.539062 5.066406 12.527344 C 5.074219 12.515625 5.1875 12.398438 5.320312 12.261719 C 5.449219 12.128906 5.542969 12.019531 5.527344 12.019531 C 5.511719 12.019531 5.398438 12.125 5.273438 12.25 M 17.554688 12.304688 C 17.511719 12.378906 17.28125 12.613281 17.042969 12.820312 C 16.71875 13.105469 16.484375 13.253906 16.101562 13.429688 C 15.640625 13.636719 14.882812 13.859375 14.632812 13.859375 C 14.453125 13.863281 14.539062 13.941406 14.933594 14.140625 C 15.574219 14.460938 17.988281 15.820312 18.449219 16.121094 C 18.59375 16.214844 18.601562 16.21875 18.546875 16.128906 C 18.515625 16.078125 18.378906 15.933594 18.242188 15.804688 C 18.074219 15.648438 18.003906 15.546875 18.027344 15.484375 C 18.046875 15.421875 18.027344 15.394531 17.953125 15.394531 C 17.792969 15.394531 17.777344 15.351562 17.859375 15.128906 C 17.902344 15.015625 17.9375 14.914062 17.9375 14.902344 C 17.9375 14.894531 17.816406 14.886719 17.667969 14.886719 L 17.398438 14.886719 L 17.566406 14.574219 C 17.65625 14.40625 17.722656 14.253906 17.707031 14.242188 C 17.695312 14.230469 17.601562 14.246094 17.496094 14.273438 C 17.394531 14.300781 17.226562 14.320312 17.125 14.320312 C 16.960938 14.320312 16.945312 14.3125 17.007812 14.242188 C 17.046875 14.199219 17.152344 14.128906 17.242188 14.085938 C 17.328125 14.042969 17.386719 13.996094 17.371094 13.980469 C 17.355469 13.964844 17.398438 13.878906 17.46875 13.792969 C 17.6875 13.515625 17.703125 13.46875 17.550781 13.566406 C 17.007812 13.925781 16.097656 14.28125 15.765625 14.265625 C 15.707031 14.265625 15.824219 14.222656 16.019531 14.171875 C 16.726562 13.992188 17.328125 13.640625 17.664062 13.199219 C 17.773438 13.054688 17.78125 13 17.746094 12.699219 C 17.726562 12.511719 17.691406 12.316406 17.671875 12.265625 C 17.636719 12.175781 17.625 12.179688 17.554688 12.304688 M 22.867188 12.207031 C 22.90625 12.222656 22.953125 12.222656 22.972656 12.203125 C 22.988281 12.1875 22.957031 12.175781 22.898438 12.179688 C 22.835938 12.179688 22.820312 12.191406 22.867188 12.207031 M 5.425781 12.417969 C 5.355469 12.496094 5.359375 12.5 5.445312 12.4375 C 5.535156 12.371094 5.566406 12.328125 5.519531 12.328125 C 5.507812 12.328125 5.464844 12.367188 5.425781 12.417969 M 4.855469 12.71875 C 4.804688 12.792969 4.789062 12.835938 4.820312 12.816406 C 4.886719 12.78125 5.011719 12.582031 4.972656 12.582031 C 4.960938 12.582031 4.90625 12.644531 4.855469 12.71875 M 25.375 12.722656 C 25.347656 12.792969 25.351562 12.800781 25.40625 12.75 C 25.445312 12.714844 25.460938 12.675781 25.445312 12.660156 C 25.425781 12.644531 25.394531 12.671875 25.375 12.722656 M 4.632812 13.046875 C 4.613281 13.078125 4.609375 13.113281 4.625 13.125 C 4.636719 13.140625 4.664062 13.113281 4.683594 13.070312 C 4.71875 12.980469 4.6875 12.964844 4.632812 13.046875 M 10.5625 13.039062 C 10.546875 13.0625 10.582031 13.074219 10.644531 13.058594 C 10.769531 13.027344 10.785156 12.992188 10.671875 12.992188 C 10.628906 12.992188 10.582031 13.011719 10.5625 13.039062 M 8.285156 13.144531 C 8.25 13.203125 8.238281 13.25 8.253906 13.25 C 8.265625 13.25 8.304688 13.203125 8.339844 13.144531 C 8.371094 13.089844 8.386719 13.042969 8.371094 13.042969 C 8.355469 13.042969 8.316406 13.089844 8.285156 13.144531 M 26.46875 13.097656 C 26.449219 13.128906 26.441406 13.164062 26.457031 13.175781 C 26.472656 13.191406 26.496094 13.164062 26.515625 13.121094 C 26.554688 13.03125 26.519531 13.015625 26.46875 13.097656 M 10.609375 13.210938 L 10.503906 13.324219 L 10.628906 13.226562 C 10.695312 13.171875 10.753906 13.121094 10.753906 13.113281 C 10.753906 13.070312 10.707031 13.101562 10.609375 13.210938 M 8.058594 13.234375 C 7.988281 13.316406 7.992188 13.316406 8.078125 13.253906 C 8.167969 13.1875 8.199219 13.144531 8.152344 13.144531 C 8.140625 13.144531 8.097656 13.1875 8.058594 13.234375 M 10.085938 13.644531 C 10.019531 13.726562 10.019531 13.726562 10.109375 13.664062 C 10.199219 13.597656 10.226562 13.554688 10.183594 13.554688 C 10.171875 13.554688 10.128906 13.59375 10.085938 13.644531 M 17.417969 13.914062 C 17.398438 13.941406 17.410156 13.964844 17.4375 13.964844 C 17.46875 13.964844 17.507812 13.941406 17.527344 13.914062 C 17.546875 13.886719 17.535156 13.863281 17.507812 13.863281 C 17.476562 13.863281 17.4375 13.886719 17.417969 13.914062 M 8.765625 14.101562 C 8.808594 14.117188 8.855469 14.113281 8.871094 14.097656 C 8.890625 14.082031 8.859375 14.066406 8.800781 14.070312 C 8.738281 14.074219 8.722656 14.085938 8.765625 14.101562 M 12.71875 14.152344 C 12.757812 14.167969 12.804688 14.164062 12.820312 14.148438 C 12.839844 14.132812 12.808594 14.121094 12.75 14.121094 C 12.6875 14.125 12.671875 14.136719 12.71875 14.152344 M 7.886719 14.203125 C 7.921875 14.21875 7.984375 14.21875 8.023438 14.203125 C 8.0625 14.1875 8.03125 14.175781 7.953125 14.175781 C 7.878906 14.175781 7.847656 14.1875 7.886719 14.203125 M 12 14.253906 C 12.039062 14.269531 12.101562 14.269531 12.136719 14.253906 C 12.175781 14.238281 12.144531 14.226562 12.070312 14.226562 C 11.992188 14.226562 11.960938 14.238281 12 14.253906 M 12.671875 14.296875 C 12.597656 14.335938 12.5625 14.371094 12.59375 14.371094 C 12.625 14.371094 12.699219 14.339844 12.757812 14.296875 C 12.894531 14.203125 12.851562 14.203125 12.671875 14.296875 M 7.117188 14.304688 C 7.15625 14.320312 7.21875 14.320312 7.253906 14.304688 C 7.292969 14.289062 7.261719 14.277344 7.1875 14.277344 C 7.109375 14.277344 7.082031 14.289062 7.117188 14.304688 M 12.152344 14.527344 C 12.132812 14.554688 12.15625 14.5625 12.203125 14.546875 C 12.296875 14.511719 12.316406 14.476562 12.238281 14.476562 C 12.207031 14.476562 12.171875 14.5 12.152344 14.527344 M 8.023438 15.277344 C 8.078125 15.292969 8.152344 15.289062 8.1875 15.277344 C 8.226562 15.261719 8.183594 15.25 8.089844 15.253906 C 8 15.253906 7.972656 15.265625 8.023438 15.277344 "/>
<path style=" stroke:none;fill-rule:evenodd;fill:rgb(77.647059%,17.647059%,17.647059%);fill-opacity:1;" d="M 11.460938 5.136719 C 10.90625 5.28125 10.101562 5.832031 9.894531 6.199219 C 9.792969 6.390625 9.84375 6.546875 10.007812 6.546875 C 10.453125 6.546875 11.824219 5.839844 12.175781 5.425781 C 12.339844 5.234375 12.34375 5.21875 12.242188 5.171875 C 12.0625 5.082031 11.722656 5.066406 11.460938 5.136719 M 15.113281 5.828125 C 14.550781 5.941406 13.863281 6.148438 13.285156 6.382812 C 12.839844 6.5625 12.832031 6.566406 12.972656 6.636719 C 13.445312 6.867188 12.703125 7.773438 12.042969 7.773438 C 11.894531 7.773438 11.8125 7.738281 11.699219 7.617188 L 11.546875 7.460938 L 11.191406 7.714844 C 10.382812 8.289062 9.542969 9.167969 9.167969 9.824219 C 8.691406 10.65625 8.683594 11.242188 9.136719 11.640625 L 9.378906 11.851562 L 9.804688 11.777344 C 10.578125 11.644531 12.183594 11.097656 12.945312 10.703125 C 14.144531 10.085938 15.828125 8.9375 16.59375 8.214844 C 17.140625 7.703125 17.617188 7.0625 17.695312 6.746094 C 17.734375 6.566406 17.496094 6.128906 17.273438 5.980469 C 16.882812 5.722656 15.964844 5.65625 15.113281 5.828125 M 10.128906 5.988281 C 9.964844 6.167969 9.945312 6.28125 10.066406 6.324219 C 10.175781 6.363281 10.800781 6.113281 11.003906 5.949219 L 11.164062 5.820312 L 10.960938 5.925781 C 10.683594 6.066406 10.203125 6.199219 10.203125 6.132812 C 10.203125 6.105469 10.230469 6.035156 10.261719 5.976562 C 10.359375 5.808594 10.285156 5.816406 10.128906 5.988281 M 14.984375 8.132812 C 14.792969 8.300781 14.5625 8.488281 14.46875 8.554688 C 14.378906 8.617188 14.226562 8.730469 14.132812 8.800781 C 13.835938 9.03125 13.261719 9.394531 12.835938 9.625 C 11.847656 10.164062 10.972656 10.433594 10.210938 10.433594 C 9.800781 10.433594 9.761719 10.425781 9.679688 10.308594 C 9.546875 10.121094 9.621094 9.839844 9.933594 9.355469 C 10.148438 9.027344 10.753906 8.273438 10.914062 8.132812 C 10.929688 8.117188 10.992188 8.050781 11.050781 7.980469 C 11.324219 7.65625 10.148438 8.769531 9.8125 9.15625 C 9.171875 9.886719 8.835938 10.6875 9.070312 10.90625 C 9.277344 11.097656 10.035156 11.0625 10.789062 10.824219 C 12.101562 10.40625 14.09375 9.128906 15.246094 7.960938 C 15.464844 7.738281 15.355469 7.8125 14.984375 8.132812 M 17.070312 10.984375 C 16.15625 11.828125 14.601562 12.664062 13.28125 13.019531 L 12.875 13.132812 L 13.246094 13.292969 C 13.585938 13.445312 13.640625 13.453125 13.875 13.40625 C 14.808594 13.21875 16.089844 12.539062 17.296875 11.585938 C 17.550781 11.390625 17.554688 11.378906 17.550781 11.101562 C 17.539062 10.570312 17.523438 10.566406 17.070312 10.984375 "/>
<path style=" stroke:none;fill-rule:evenodd;fill:rgb(2.745098%,47.45098%,3.137255%);fill-opacity:1;" d="M 17.292969 4.316406 C 16.953125 4.351562 16.652344 4.402344 16.628906 4.429688 C 16.5625 4.492188 16.441406 4.859375 16.472656 4.890625 C 16.488281 4.902344 16.863281 4.855469 17.308594 4.785156 C 18.703125 4.5625 19.667969 4.628906 20.0625 4.972656 C 20.171875 5.070312 20.191406 5.128906 20.183594 5.34375 C 20.175781 5.484375 20.132812 5.679688 20.085938 5.78125 C 19.960938 6.046875 19.558594 6.566406 19.121094 7.03125 C 18.90625 7.257812 18.664062 7.519531 18.582031 7.613281 C 18.5 7.707031 18.433594 7.765625 18.433594 7.742188 C 18.429688 7.71875 18.398438 7.753906 18.359375 7.824219 C 18.320312 7.894531 18.261719 7.949219 18.230469 7.945312 C 18.203125 7.9375 18.175781 7.96875 18.175781 8.007812 C 18.175781 8.046875 18.195312 8.082031 18.214844 8.082031 C 18.265625 8.082031 19.582031 6.808594 19.722656 6.628906 C 19.78125 6.546875 19.882812 6.421875 19.945312 6.347656 C 20.585938 5.589844 20.820312 4.878906 20.527344 4.589844 C 20.292969 4.355469 19.925781 4.285156 18.871094 4.265625 C 18.332031 4.257812 17.640625 4.28125 17.292969 4.316406 M 11.898438 5.921875 C 11.828125 6 11.832031 6.003906 11.917969 5.941406 C 11.972656 5.902344 12.015625 5.859375 12.015625 5.851562 C 12.015625 5.808594 11.96875 5.835938 11.898438 5.921875 M 20.902344 6.566406 C 20.902344 7.152344 20.121094 8.160156 18.898438 9.148438 L 18.625 9.371094 L 18.980469 9.148438 C 19.175781 9.027344 19.34375 8.933594 19.347656 8.9375 C 19.355469 8.945312 19.441406 8.875 19.542969 8.789062 C 20.140625 8.261719 20.332031 8.078125 20.53125 7.824219 C 20.65625 7.671875 20.769531 7.535156 20.789062 7.519531 C 20.835938 7.480469 21.0625 7.105469 21.152344 6.917969 C 21.222656 6.769531 21.222656 6.738281 21.144531 6.628906 C 21.023438 6.449219 20.902344 6.421875 20.902344 6.566406 M 17.566406 8.515625 C 17.566406 8.601562 17.578125 8.628906 17.59375 8.578125 C 17.605469 8.53125 17.605469 8.460938 17.589844 8.425781 C 17.574219 8.390625 17.566406 8.433594 17.566406 8.515625 M 22.050781 9.15625 C 21.941406 9.207031 21.816406 9.292969 21.773438 9.339844 C 21.703125 9.421875 21.695312 9.414062 21.667969 9.277344 L 21.640625 9.128906 L 21.078125 9.117188 L 20.515625 9.101562 L 20.515625 9.292969 C 20.511719 9.402344 20.511719 10.410156 20.511719 11.535156 L 20.515625 13.582031 L 21.640625 13.582031 L 21.671875 11.863281 L 21.820312 11.960938 C 22.582031 12.464844 23.648438 12.152344 24.074219 11.304688 C 24.265625 10.921875 24.269531 10.332031 24.085938 9.9375 C 23.941406 9.632812 23.582031 9.296875 23.242188 9.152344 C 22.929688 9.019531 22.320312 9.023438 22.050781 9.15625 M 24.523438 9.148438 C 24.523438 9.199219 24.773438 9.640625 25.207031 10.363281 C 25.359375 10.613281 25.515625 10.886719 25.5625 10.972656 C 25.605469 11.054688 25.65625 11.136719 25.671875 11.152344 C 25.6875 11.164062 25.773438 11.296875 25.859375 11.445312 C 25.960938 11.625 25.996094 11.738281 25.960938 11.78125 C 25.933594 11.8125 25.746094 12.136719 25.542969 12.496094 C 25.339844 12.855469 25.128906 13.230469 25.070312 13.328125 C 25.007812 13.425781 24.960938 13.527344 24.960938 13.554688 C 24.960938 13.585938 25.21875 13.605469 25.582031 13.605469 L 26.199219 13.605469 L 26.367188 13.3125 C 26.460938 13.148438 26.609375 12.890625 26.699219 12.738281 C 26.789062 12.582031 26.976562 12.257812 27.113281 12.019531 C 27.25 11.78125 27.480469 11.378906 27.625 11.125 C 27.769531 10.871094 27.90625 10.65625 27.933594 10.648438 C 27.957031 10.636719 27.976562 10.589844 27.976562 10.542969 C 27.976562 10.496094 28 10.433594 28.023438 10.40625 C 28.050781 10.378906 28.191406 10.152344 28.335938 9.898438 C 28.480469 9.644531 28.632812 9.390625 28.671875 9.335938 C 28.832031 9.117188 28.785156 9.101562 28.105469 9.117188 L 27.464844 9.128906 L 27.078125 9.828125 C 26.863281 10.214844 26.671875 10.542969 26.652344 10.5625 C 26.632812 10.582031 26.472656 10.324219 26.296875 9.992188 C 26.121094 9.660156 25.945312 9.359375 25.90625 9.320312 C 25.867188 9.28125 25.851562 9.230469 25.863281 9.207031 C 25.878906 9.183594 25.855469 9.152344 25.804688 9.136719 C 25.671875 9.085938 24.523438 9.097656 24.523438 9.148438 M 16.835938 9.5 C 16.765625 9.582031 16.769531 9.585938 16.855469 9.519531 C 16.90625 9.480469 16.953125 9.441406 16.953125 9.429688 C 16.953125 9.390625 16.90625 9.417969 16.835938 9.5 M 17.144531 10.179688 C 16.964844 10.347656 16.839844 10.484375 16.867188 10.484375 C 16.894531 10.484375 16.859375 10.542969 16.785156 10.613281 C 16.640625 10.757812 16.515625 10.789062 16.628906 10.652344 C 16.6875 10.578125 16.679688 10.582031 16.582031 10.660156 C 16.445312 10.765625 16.417969 10.820312 16.527344 10.761719 C 16.5625 10.742188 16.546875 10.773438 16.492188 10.835938 C 16.367188 10.96875 16.246094 10.984375 16.355469 10.855469 C 16.421875 10.777344 16.421875 10.773438 16.335938 10.835938 C 16.28125 10.875 16.25 10.925781 16.265625 10.949219 C 16.308594 11.011719 15.359375 11.664062 15.226562 11.664062 C 15.207031 11.664062 15.207031 11.636719 15.230469 11.601562 C 15.253906 11.566406 15.242188 11.558594 15.203125 11.582031 C 15.167969 11.601562 15.152344 11.640625 15.167969 11.664062 C 15.210938 11.726562 14.441406 12.085938 14.363281 12.039062 C 14.324219 12.015625 14.316406 12.027344 14.347656 12.074219 C 14.378906 12.121094 14.367188 12.132812 14.296875 12.105469 C 14.234375 12.082031 14.214844 12.09375 14.242188 12.132812 C 14.269531 12.171875 14.25 12.179688 14.1875 12.15625 C 14.125 12.136719 14.105469 12.144531 14.132812 12.183594 C 14.160156 12.222656 14.140625 12.230469 14.078125 12.207031 C 14.015625 12.1875 13.996094 12.195312 14.023438 12.234375 C 14.050781 12.273438 14.03125 12.28125 13.96875 12.261719 C 13.90625 12.238281 13.886719 12.246094 13.914062 12.285156 C 13.9375 12.324219 13.921875 12.332031 13.859375 12.3125 C 13.8125 12.292969 13.769531 12.300781 13.769531 12.328125 C 13.769531 12.355469 13.726562 12.359375 13.671875 12.34375 C 13.605469 12.320312 13.59375 12.328125 13.636719 12.371094 C 13.816406 12.554688 15.671875 11.785156 16.730469 11.085938 C 16.898438 10.976562 17.113281 10.835938 17.210938 10.777344 C 17.390625 10.660156 17.472656 10.441406 17.4375 10.144531 C 17.429688 10.0625 17.441406 9.972656 17.464844 9.9375 C 17.542969 9.816406 17.46875 9.871094 17.144531 10.179688 M 22.144531 9.976562 C 21.695312 10.101562 21.488281 10.574219 21.722656 10.933594 C 22.003906 11.363281 22.476562 11.410156 22.832031 11.050781 C 23.007812 10.871094 23.039062 10.804688 23.039062 10.613281 C 23.039062 10.433594 23.007812 10.351562 22.871094 10.207031 C 22.65625 9.980469 22.410156 9.902344 22.144531 9.976562 M 17.117188 10.253906 C 16.984375 10.382812 16.886719 10.484375 16.902344 10.484375 C 16.917969 10.484375 17.039062 10.382812 17.171875 10.253906 C 17.304688 10.128906 17.402344 10.027344 17.386719 10.027344 C 17.371094 10.027344 17.25 10.128906 17.117188 10.253906 M 6.714844 11.0625 C 6.199219 11.425781 5.75 11.820312 5.101562 12.480469 C 4.949219 12.636719 4.785156 12.867188 4.652344 13.121094 C 4.351562 13.683594 4.566406 14.039062 5.320312 14.226562 C 5.597656 14.296875 5.859375 14.316406 6.484375 14.308594 C 7.277344 14.296875 7.289062 14.296875 7.21875 14.398438 C 7.144531 14.507812 7.035156 14.792969 6.992188 14.992188 C 6.980469 15.054688 6.992188 15.199219 7.023438 15.304688 C 7.136719 15.695312 7.769531 15.800781 8.785156 15.601562 C 9.394531 15.480469 10.3125 15.246094 10.671875 15.117188 C 11.59375 14.789062 11.957031 14.648438 12.070312 14.574219 C 12.210938 14.488281 12.386719 14.421875 12.472656 14.429688 C 12.5 14.429688 12.539062 14.410156 12.554688 14.386719 C 12.574219 14.359375 12.664062 14.300781 12.753906 14.253906 L 12.917969 14.171875 L 12.777344 14.171875 C 12.695312 14.167969 12.507812 14.191406 12.359375 14.21875 C 12.207031 14.242188 11.964844 14.269531 11.816406 14.273438 C 11.652344 14.28125 11.390625 14.347656 11.136719 14.449219 C 9.679688 15.042969 8.734375 15.296875 8.042969 15.273438 C 7.824219 15.269531 7.613281 15.242188 7.570312 15.21875 C 7.257812 15.039062 7.21875 14.832031 7.417969 14.453125 C 7.515625 14.265625 7.566406 14.21875 7.691406 14.210938 C 8.1875 14.183594 8.238281 14.175781 9.203125 14.007812 L 9.816406 13.902344 L 10.300781 13.472656 C 10.5625 13.238281 10.753906 13.046875 10.722656 13.046875 C 10.6875 13.042969 10.441406 13.113281 10.171875 13.199219 C 9.902344 13.28125 9.632812 13.363281 9.574219 13.375 C 9.511719 13.386719 9.214844 13.457031 8.914062 13.527344 C 8.613281 13.601562 8.253906 13.679688 8.117188 13.699219 L 7.867188 13.742188 L 8.128906 13.378906 C 8.417969 12.980469 8.449219 12.910156 8.285156 13.003906 C 8.222656 13.039062 8.175781 13.097656 8.175781 13.128906 C 8.175781 13.164062 8.128906 13.222656 8.078125 13.257812 C 8.023438 13.292969 7.910156 13.421875 7.824219 13.539062 C 7.636719 13.796875 7.554688 13.820312 6.730469 13.820312 C 5.570312 13.824219 4.992188 13.648438 4.992188 13.289062 C 4.992188 12.933594 5.53125 12.222656 6.453125 11.367188 C 6.703125 11.136719 6.902344 10.945312 6.894531 10.945312 C 6.886719 10.945312 6.804688 11 6.714844 11.0625 M 15.664062 11.28125 C 15.605469 11.320312 15.585938 11.355469 15.617188 11.355469 C 15.648438 11.355469 15.707031 11.320312 15.746094 11.277344 C 15.828125 11.183594 15.804688 11.183594 15.664062 11.28125 M 17.171875 12.710938 C 17.039062 12.835938 16.941406 12.941406 16.957031 12.941406 C 16.972656 12.941406 17.09375 12.835938 17.226562 12.710938 C 17.359375 12.585938 17.457031 12.480469 17.441406 12.480469 C 17.425781 12.480469 17.304688 12.585938 17.171875 12.710938 M 17.109375 13.695312 C 17.039062 13.777344 17.042969 13.777344 17.128906 13.714844 C 17.183594 13.675781 17.226562 13.636719 17.226562 13.625 C 17.226562 13.582031 17.179688 13.609375 17.109375 13.695312 M 14.539062 13.917969 C 14.539062 13.945312 14.5625 13.957031 14.59375 13.9375 C 14.621094 13.921875 14.648438 13.898438 14.648438 13.882812 C 14.648438 13.871094 14.621094 13.863281 14.59375 13.863281 C 14.5625 13.863281 14.539062 13.886719 14.539062 13.917969 M 16.867188 14.324219 C 16.851562 14.351562 16.886719 14.375 16.949219 14.375 C 17.082031 14.375 17.09375 14.34375 16.980469 14.304688 C 16.9375 14.289062 16.886719 14.296875 16.867188 14.324219 M 18.214844 15.824219 C 18.214844 15.835938 18.257812 15.875 18.308594 15.914062 C 18.394531 15.976562 18.398438 15.976562 18.328125 15.894531 C 18.257812 15.808594 18.214844 15.78125 18.214844 15.824219 "/>
<path style=" stroke:none;fill-rule:evenodd;fill:rgb(87.843137%,74.901961%,23.529412%);fill-opacity:1;" d="M 12.15625 5.445312 C 11.890625 5.773438 10.792969 6.371094 10.199219 6.515625 C 9.921875 6.582031 9.910156 6.589844 10.058594 6.625 C 10.449219 6.722656 11.160156 6.476562 11.714844 6.058594 C 12.105469 5.757812 12.269531 5.585938 12.316406 5.429688 C 12.367188 5.242188 12.316406 5.25 12.15625 5.445312 M 10.121094 6.007812 C 9.972656 6.1875 9.96875 6.34375 10.113281 6.34375 C 10.15625 6.34375 10.324219 6.285156 10.484375 6.21875 C 10.808594 6.082031 11.140625 5.882812 11.050781 5.882812 C 11.019531 5.882812 10.96875 5.90625 10.941406 5.933594 C 10.867188 6 10.25 6.195312 10.214844 6.164062 C 10.199219 6.148438 10.214844 6.078125 10.25 6.003906 C 10.351562 5.800781 10.289062 5.800781 10.121094 6.007812 M 17.664062 6.816406 C 17.664062 7.003906 17.105469 7.738281 16.59375 8.214844 C 15.828125 8.9375 14.144531 10.085938 12.945312 10.703125 C 12.191406 11.089844 10.679688 11.613281 9.882812 11.761719 L 9.410156 11.847656 L 9.875 12.015625 C 10.328125 12.175781 11.214844 12.4375 11.332031 12.445312 C 11.363281 12.445312 11.59375 12.382812 11.839844 12.308594 C 13.605469 11.761719 15.867188 10.445312 17.082031 9.257812 C 17.476562 8.867188 17.554688 8.765625 17.554688 8.625 C 17.554688 8.535156 17.605469 8.210938 17.664062 7.902344 C 17.78125 7.304688 17.808594 6.75 17.71875 6.75 C 17.6875 6.75 17.664062 6.78125 17.664062 6.816406 M 14.949219 8.167969 C 14.210938 8.816406 12.941406 9.636719 12.109375 9.996094 C 11.175781 10.402344 9.917969 10.574219 9.679688 10.332031 C 9.589844 10.238281 9.585938 10.195312 9.640625 9.945312 C 9.714844 9.621094 10.023438 9.152344 10.65625 8.414062 L 11.09375 7.902344 L 10.699219 8.261719 C 10.28125 8.640625 9.671875 9.300781 9.425781 9.640625 C 9.105469 10.082031 8.914062 10.710938 9.042969 10.886719 C 9.113281 10.984375 9.570312 11.054688 9.898438 11.019531 C 10.523438 10.949219 11.445312 10.621094 12.261719 10.171875 C 13.09375 9.714844 14.417969 8.75 15.085938 8.113281 C 15.488281 7.726562 15.417969 7.753906 14.949219 8.167969 M 17.617188 12.253906 C 17.601562 12.363281 17.050781 12.886719 16.71875 13.109375 C 16.222656 13.4375 15.328125 13.808594 15.007812 13.8125 C 14.945312 13.8125 14.824219 13.84375 14.738281 13.878906 L 14.585938 13.9375 L 14.894531 14.105469 C 15.070312 14.199219 15.28125 14.269531 15.378906 14.269531 C 15.648438 14.269531 16.28125 14.097656 16.691406 13.917969 C 17.09375 13.742188 17.691406 13.238281 17.746094 13.03125 C 17.761719 12.96875 17.742188 12.753906 17.699219 12.558594 C 17.65625 12.359375 17.621094 12.222656 17.617188 12.253906 "/>
</g>
</svg>
